<?xml version="1.0" encoding="UTF-8"?>
<svg width="32px" height="32px" viewBox="0 0 32 32" version="1.1" xmlns="http://www.w3.org/2000/svg" xmlns:xlink="http://www.w3.org/1999/xlink">
    <!-- Generator: Sketch 60 (88103) - https://sketch.com -->
    <title>Icon_Instagram</title>
    <desc>Created with Sketch.</desc>
    <g id="Icon_Instagram" stroke="none" stroke-width="1" fill="none" fill-rule="evenodd">
        <g id="Icon/Instagram" transform="translate(8.000000, 8.000000)" fill="#000000">
            <path d="M14.098,0 C15.149,0 16,0.849 16,1.897 L16,14.102 C16,15.15 15.149,16 14.098,16 L1.902,16 C0.852,16 0,15.15 0,14.102 L0,1.897 C0,0.849 0.852,0 1.902,0 L14.098,0 Z M3.3248,6.7342 L1.8278,6.7342 L1.8278,13.6922 L1.83499753,13.7725827 C1.87282469,13.9811753 2.05524444,14.1392 2.2748,14.1392 L2.2748,14.1392 L13.7618,14.1392 L13.8424804,14.1320025 C14.0517753,14.0941753 14.2098,13.9117556 14.2098,13.6922 L14.2098,13.6922 L14.2098,6.7342 L12.7128,6.7342 L12.774184,6.982168 C12.8474,7.31612 12.8858,7.663 12.8858,8.0182 C12.8858,10.6952 10.7028,12.8742 8.0188,12.8742 C5.3348,12.8742 3.1518,10.6952 3.1518,8.0182 C3.1518,7.5742 3.2118,7.1432 3.3248,6.7342 L3.3248,6.7342 Z M8.0187,4.9488 C6.3197,4.9488 4.9417,6.3228 4.9417,8.0178 C4.9417,9.7138 6.3197,11.0878 8.0187,11.0878 C9.7177,11.0878 11.0957,9.7138 11.0957,8.0178 C11.0957,6.3228 9.7177,4.9488 8.0187,4.9488 Z M13.7248,1.823 L11.5618,1.823 L11.481383,1.83019616 C11.2726148,1.86801235 11.1138,2.05033333 11.1138,2.269 L11.1138,2.269 L11.1138,4.428 L11.1210318,4.50808505 C11.1590346,4.71597531 11.3422444,4.874 11.5618,4.874 L11.5618,4.874 L13.7248,4.874 L13.805217,4.86680384 C14.0139852,4.82898765 14.1728,4.64666667 14.1728,4.428 L14.1728,4.428 L14.1728,2.269 L14.1655682,2.18891495 C14.1275654,1.98102469 13.9443556,1.823 13.7248,1.823 L13.7248,1.823 Z" id="Combined-Shape"></path>
        </g>
    </g>
</svg>